<svg width="90" height="90" viewBox="0 0 90 90" fill="none" xmlns="http://www.w3.org/2000/svg">
<circle cx="45" cy="45" r="45" fill="white"/>
<path d="M46.128 70.896C40.88 70.896 36.6773 69.36 33.52 66.288C30.4053 63.1733 28.848 58.6293 28.848 52.656V42.544C28.848 38.6187 29.552 35.312 30.96 32.624C32.4107 29.8933 34.416 27.824 36.976 26.416C39.5787 25.008 42.6293 24.304 46.128 24.304C51.376 24.304 55.3867 25.776 58.16 28.72C60.976 31.6213 62.384 35.5893 62.384 40.624V41.264H57.008V40.624C57.008 37.2533 56.112 34.5013 54.32 32.368C52.5707 30.2347 49.84 29.168 46.128 29.168C43.6107 29.168 41.456 29.7013 39.664 30.768C37.9147 31.8347 36.5707 33.3493 35.632 35.312C34.6933 37.232 34.224 39.5573 34.224 42.288V52.912C34.224 57.008 35.248 60.2293 37.296 62.576C39.344 64.88 42.288 66.032 46.128 66.032C49.9253 66.032 52.6773 64.9653 54.384 62.832C56.1333 60.6987 57.008 57.9467 57.008 54.576V53.552H62.384V54.576C62.384 59.6107 60.9973 63.6 58.224 66.544C55.4933 69.4453 51.4613 70.896 46.128 70.896ZM24.24 53.424V49.2H45.872V53.424H24.24ZM24.24 45.488V41.2H45.872V45.488H24.24Z" fill="#D376D7"/>
</svg>
