<svg width="90" height="90" viewBox="0 0 90 90" fill="none" xmlns="http://www.w3.org/2000/svg">
<g clip-path="url(#clip0_586_293)">
<path d="M45 90C69.8528 90 90 69.8528 90 45C90 20.1472 69.8528 0 45 0C20.1472 0 0 20.1472 0 45C0 69.8528 20.1472 90 45 90Z" fill="white"/>
<path d="M44.032 68.896C40.7893 68.896 37.888 68.32 35.328 67.168C32.768 66.016 30.7413 64.288 29.248 61.984C27.7973 59.6373 27.072 56.7147 27.072 53.216V51.872H32.384V53.216C32.384 56.928 33.472 59.7013 35.648 61.536C37.824 63.328 40.6187 64.224 44.032 64.224C47.5307 64.224 50.1973 63.4347 52.032 61.856C53.8667 60.2773 54.784 58.2933 54.784 55.904C54.784 54.24 54.3787 52.9173 53.568 51.936C52.7573 50.9547 51.6053 50.1653 50.112 49.568C48.6187 48.928 46.8693 48.3733 44.864 47.904L41.472 47.072C38.8693 46.3893 36.5653 45.5573 34.56 44.576C32.5547 43.5947 30.976 42.3147 29.824 40.736C28.7147 39.1147 28.16 37.0453 28.16 34.528C28.16 32.0107 28.8 29.8347 30.08 28C31.36 26.1653 33.1307 24.7573 35.392 23.776C37.6533 22.7947 40.2987 22.304 43.328 22.304C46.3573 22.304 49.0667 22.8373 51.456 23.904C53.8453 24.928 55.744 26.464 57.152 28.512C58.56 30.5173 59.264 33.056 59.264 36.128V38.816H53.952V36.128C53.952 33.952 53.4827 32.2027 52.544 30.88C51.648 29.5573 50.3893 28.576 48.768 27.936C47.1893 27.296 45.376 26.976 43.328 26.976C40.384 26.976 38.016 27.6373 36.224 28.96C34.432 30.24 33.536 32.0747 33.536 34.464C33.536 36.0427 33.8987 37.3227 34.624 38.304C35.392 39.2853 36.48 40.096 37.888 40.736C39.296 41.3333 40.9813 41.8667 42.944 42.336L46.336 43.168C48.896 43.7227 51.2213 44.4907 53.312 45.472C55.4027 46.4107 57.0453 47.712 58.24 49.376C59.4773 50.9973 60.096 53.1307 60.096 55.776C60.096 58.4213 59.4347 60.7253 58.112 62.688C56.7893 64.6507 54.912 66.1867 52.48 67.296C50.0907 68.3627 47.2747 68.896 44.032 68.896ZM41.6 75.424V15.776H46.528V75.424H41.6Z" fill="#D376D7"/>
</g>
<defs>
<clipPath id="clip0_586_293">
<rect width="90" height="90" fill="white"/>
</clipPath>
</defs>
</svg>
